# xmcd
#
# Track frame offsets:
#	150
#	11649
#	55490
#	79709
#	97118
#	117347
#	134100
#	150726
#	168786
#	187696
#
# Disc length: 2775 seconds
#
# Revision: 0
# Processed by: cddbd v1.5.2PL0 Copyright (c) Steve Scherf et al.
# Submitted via: EasyCDDAExtractor 10.2.0.1
#
DISCID=7e0ad50a
DTITLE=Van Morrison - Hymns To The Silence [cd2]
DYEAR=1991
DGENRE=Blues
TTITLE0=All Saints Day
TTITLE1=Hymns To The Silence
TTITLE2=On Hyndford Street
TTITLE3=Be Thou My Vision
TTITLE4=Carrying A Torch
TTITLE5=Green Mansions
TTITLE6=Pagan Streams
TTITLE7=Quality Street
TTITLE8=It Must Be You
TTITLE9=I Need You Kind Of Loving
EXTD=
EXTT0=
EXTT1=
EXTT2=
EXTT3=
EXTT4=
EXTT5=
EXTT6=
EXTT7=
EXTT8=
EXTT9=
PLAYORDER=
